<?xml version="1.0" encoding="UTF-8" standalone="no" ?>
<!DOCTYPE svg PUBLIC "-//W3C//DTD SVG 1.1//EN" "http://www.w3.org/Graphics/SVG/1.1/DTD/svg11.dtd">
<svg xmlns="http://www.w3.org/2000/svg" xmlns:xlink="http://www.w3.org/1999/xlink" version="1.1" width="600" height="500" viewBox="0 0 600 500" xml:space="preserve">
<desc>Created with Fabric.js 4.6.0</desc>
<defs>
</defs>
<g transform="matrix(1 0 0 1 0.43 499.57)" id="6b_dlkZ6SmRHSqXpygxuH"  >
<path style="stroke: rgb(0,0,0); stroke-width: 1; stroke-dasharray: none; stroke-linecap: butt; stroke-dashoffset: 0; stroke-linejoin: miter; stroke-miterlimit: 4; fill: rgb(255,255,255); fill-opacity: 0; fill-rule: nonzero; opacity: 1;" vector-effect="non-scaling-stroke"  transform=" translate(0, 0)" d="M 0 0" stroke-linecap="round" />
</g>
<g transform="matrix(1.13 0 0 1.34 116.03 311.41)" id="HQctTEno_HOZ8zFX-hYY6"  >
<path style="stroke: rgb(0,0,0); stroke-width: 3; stroke-dasharray: none; stroke-linecap: butt; stroke-dashoffset: 0; stroke-linejoin: miter; stroke-miterlimit: 4; fill: rgb(120,1,22); fill-rule: nonzero; opacity: 1;" vector-effect="non-scaling-stroke"  transform=" translate(0, 0)" d="M -101.67715 145.68496 C -101.67715 145.68496 -102.45745 100.97806 -95.75503 83.64877999999999 C -87.47681 62.24523999999999 -71.38066 62.38458999999999 -71.38066 -2.0847400000000107 C -71.38066 -78.94368000000001 -60.10049000000001 -166.7569 -50.886210000000005 -141.15156000000002 C -48.25076000000001 -133.82798000000003 -42.394040000000004 -74.40572000000002 -40.26955000000001 -38.579770000000025 C -38.54693000000001 -9.530640000000023 -40.26955000000001 -2.084740000000025 -40.26955000000001 -2.084740000000025 L -40.26955000000001 19.026369999999975 L -29.15844000000001 10.137479999999975 L -18.591310000000007 -26.856570000000026 L -13.045370000000007 -94.53249000000002 L -13.045370000000007 -94.53249000000002 C -12.952110000000006 -95.67048000000003 -11.880970000000007 -96.57776000000003 -10.531450000000007 -96.66184000000003 C -9.181930000000007 -96.74592000000003 -7.964200000000007 -95.98124000000003 -7.673490000000006 -94.86717000000003 C -3.8523600000000062 -80.22358000000003 -2.3931300000000064 -73.83244000000003 -0.26954000000000633 -49.86253000000003 C 2.598239999999994 -17.49253000000003 -0.26954000000000633 -9.862530000000028 -0.26954000000000633 -9.862530000000028 L 8.452929999999993 -5.165820000000028 L 8.452929999999993 -5.165820000000028 C 9.962679999999994 -4.352880000000027 11.796129999999993 -4.084310000000028 13.542709999999992 -4.420260000000027 C 15.289289999999992 -4.756210000000028 16.80306999999999 -5.668610000000028 17.74505999999999 -6.953140000000028 L 26.39712999999999 -18.751420000000028 L 101.70497999999999 -18.751420000000028 L 101.70497999999999 145.68495 C 101.70497999999999 145.68495 -97.79452000000002 143.80784999999997 -101.67715 145.68495" stroke-linecap="round" />
</g>
<g transform="matrix(0.97 0 0 0.96 331.89 276.41)" id="AmwNnkC7zTqq4S3Sh2mvd"  >
<path style="stroke: rgb(0,0,0); stroke-width: 5; stroke-dasharray: none; stroke-linecap: butt; stroke-dashoffset: 0; stroke-linejoin: miter; stroke-miterlimit: 4; fill: rgb(219,72,21); fill-rule: nonzero; opacity: 1;" vector-effect="non-scaling-stroke"  transform=" translate(0, 0)" d="M -277.53974 232.28772 C -274.45421 229.86871000000002 -270.60185 226.84852 -266.22087999999997 223.41391000000002 C -235.34594999999996 199.20845000000003 -178.21633999999995 154.41973000000002 -178.21633999999995 154.41973000000002 C -178.21633999999995 154.41973000000002 -170.76754999999994 133.00446000000002 -178.21633999999995 103.20930000000001 C -185.66512999999995 73.41414000000002 -244.32434999999992 13.823830000000015 -221.04687999999993 11.030530000000013 C -213.14779999999993 10.082640000000014 -220.57517999999993 1.9753400000000134 -214.15240999999992 -3.4021199999999876 C -201.6481699999999 -13.871279999999988 -178.21633999999992 -24.38566999999999 -178.21633999999992 -24.38566999999999 L -167.04315999999992 -103.49461 C -167.04315999999992 -103.49461 -161.4565699999999 -124.90987999999999 -142.8345899999999 -131.42757 C -136.6561499999999 -133.59003 -132.6300999999999 -145.18202 -130.0083099999999 -159.7084 C -126.9612399999999 -176.59113000000002 -125.8109499999999 -197.43745 -125.38299999999991 -212.05098 C -125.06934999999991 -222.76156 -97.2107499999999 -233.84843 -97.2107499999999 -233.84843 L 277.5397400000001 -233.84843 L 277.5397400000001 233.84841" stroke-linecap="round" />
</g>
<g transform="matrix(0.96 0 0 0.95 332.22 393.25)" id="fVa-0d5G0R35sNxKs1XeG"  >
<filter id="SVGID_0" y="-33%" height="166%" x="-25%" width="150%" >
	<feGaussianBlur in="SourceAlpha" stdDeviation="7"></feGaussianBlur>
	<feOffset dx="-14" dy="15" result="oBlur" ></feOffset>
	<feFlood flood-color="rgb(54,0,0)" flood-opacity="1"/>
	<feComposite in2="oBlur" operator="in" />
	<feMerge>
		<feMergeNode></feMergeNode>
		<feMergeNode in="SourceGraphic"></feMergeNode>
	</feMerge>
</filter>
<path style="stroke: rgb(0,0,0); stroke-width: 1; stroke-dasharray: none; stroke-linecap: butt; stroke-dashoffset: 0; stroke-linejoin: miter; stroke-miterlimit: 4; fill: rgb(180,37,29); fill-rule: nonzero; opacity: 1;filter: url(#SVGID_0);" vector-effect="non-scaling-stroke"  transform=" translate(0, 0)" d="M -277.53974 110.36955 C -274.45421 107.95054 -270.60185 104.93035 -266.22087999999997 101.49574 C -235.34594999999996 77.29028 -178.21633999999995 32.50156 -178.21633999999995 32.50156 C -178.21633999999995 32.50156 -170.76754999999994 11.086289999999998 -178.21633999999995 -18.708870000000005 C -185.66512999999995 -48.50403 -244.32434999999992 -108.09434 -221.04687999999993 -110.88764 C -216.96187999999992 -111.37784 -83.75854999999993 -111.63987 43.92384000000004 -111.77862 C 163.13825000000003 -111.90817 277.53974000000005 -111.93025 277.53974000000005 -111.93025 L 277.53974000000005 111.93025" stroke-linecap="round" />
</g>
<g transform="matrix(1 0 0 1 476 417.26)" id="pL_7B2ubgTgb4-e-rn8zS"  >
<filter id="SVGID_1" y="-33%" height="166%" x="-28%" width="156%" >
	<feGaussianBlur in="SourceAlpha" stdDeviation="5.5"></feGaussianBlur>
	<feOffset dx="-10" dy="-10" result="oBlur" ></feOffset>
	<feFlood flood-color="rgb(114,0,0)" flood-opacity="1"/>
	<feComposite in2="oBlur" operator="in" />
	<feMerge>
		<feMergeNode></feMergeNode>
		<feMergeNode in="SourceGraphic"></feMergeNode>
	</feMerge>
</filter>
<path style="stroke: rgb(0,0,0); stroke-width: 3; stroke-dasharray: none; stroke-linecap: butt; stroke-dashoffset: 0; stroke-linejoin: miter; stroke-miterlimit: 4; fill: rgb(255,144,44); fill-rule: nonzero; opacity: 1;filter: url(#SVGID_1);" vector-effect="non-scaling-stroke"  transform=" translate(0, 0)" d="M -126.33333 80.31223 L -110.09052 19.5813 L -110.09052 19.5813 C -108.37412 13.16377 -104.59727 7.487689999999999 -99.34069 3.4257799999999996 L -93.41028999999999 -1.1568000000000005 L -93.41028999999999 -1.1568000000000005 C -86.66127999999999 -6.371950000000001 -78.37301 -9.20111 -69.84382 -9.20111 L -53.89600999999999 -9.20111 L -53.89600999999999 -9.20111 C -40.35336999999999 -9.20111 -28.59271999999999 -18.52405 -25.50239999999999 -31.70939 L -14.111109999999991 -80.31222 L -7.453479999999991 -80.31222 L -7.453479999999991 -80.31222 C -0.9522499999999914 -80.31222 4.680580000000009 -75.80596 6.107670000000009 -69.4633 L 13.666660000000007 -35.86778 L 52.55555000000001 -35.86778 L 58.93333000000001 -50.74926000000001 L 58.93333000000001 -50.74926000000001 C 63.152980000000014 -60.59510000000001 72.83424000000001 -66.97889 83.54620000000001 -66.97889 L 126.33333000000002 -66.97889 L 125.33333000000002 80.31223 z" stroke-linecap="round" />
</g>
<g transform="matrix(1 0 0 1 379.6 252.93)" id="gou6bn-cXm37CkZY5UHUe"  >
<path style="stroke: rgb(0,0,0); stroke-width: 1; stroke-dasharray: none; stroke-linecap: butt; stroke-dashoffset: 0; stroke-linejoin: miter; stroke-miterlimit: 4; fill: rgb(255,255,255); fill-opacity: 0; fill-rule: nonzero; opacity: 1;" vector-effect="non-scaling-stroke"  transform=" translate(0, 0)" d="M -219.62285 0 L 219.62285999999997 0" stroke-linecap="round" />
</g>
<g transform="matrix(1 0 0 1 359.54 300.56)" id="dEdwN3dutY-O-9ObRlJtd"  >
<path style="stroke: rgb(0,0,0); stroke-width: 1; stroke-dasharray: none; stroke-linecap: butt; stroke-dashoffset: 0; stroke-linejoin: miter; stroke-miterlimit: 4; fill: rgb(255,255,255); fill-opacity: 0; fill-rule: nonzero; opacity: 1;" vector-effect="non-scaling-stroke"  transform=" translate(0, 0)" d="M -242.40044 0 L 242.40044 0" stroke-linecap="round" />
</g>
<g transform="matrix(1 0 0 1 363.06 270.56)" id="p80wWxrxv7B4Jh1G27YWQ"  >
<path style="stroke: rgb(0,0,0); stroke-width: 1; stroke-dasharray: none; stroke-linecap: butt; stroke-dashoffset: 0; stroke-linejoin: miter; stroke-miterlimit: 4; fill: rgb(255,255,255); fill-opacity: 0; fill-rule: nonzero; opacity: 1;" vector-effect="non-scaling-stroke"  transform=" translate(0, 0)" d="M -236.38889 0 L 236.38889 0" stroke-linecap="round" />
</g>
<g transform="matrix(0.97 0 0 0.96 397.45 100.82)" id="ynn-bWspmuS0TNzmCRBgL"  >
<path style="stroke: rgb(0,0,0); stroke-width: 5; stroke-dasharray: none; stroke-linecap: butt; stroke-dashoffset: 0; stroke-linejoin: miter; stroke-miterlimit: 4; fill: rgb(255,144,44); fill-rule: nonzero; opacity: 1;" vector-effect="non-scaling-stroke"  transform=" translate(0, 0)" d="M -210.18716 51.21043 C -204.00872 49.04797 -199.98267 37.455980000000004 -197.36088 22.9296 C -194.31381000000002 6.046870000000002 -193.16352 -14.79945 -192.73557 -29.412979999999997 C -192.42192 -40.12356 -164.56332 -51.21043 -164.56332 -51.21043 L 210.18717 -51.21043 L 210.18717 43.801230000000004" stroke-linecap="round" />
</g>
<g transform="matrix(1 0 0 1 399.72 143.89)" id="_IcfxElmuGMh5oCQthRyh"  >
<path style="stroke: rgb(0,0,0); stroke-width: 1; stroke-dasharray: none; stroke-linecap: butt; stroke-dashoffset: 0; stroke-linejoin: miter; stroke-miterlimit: 4; fill: rgb(255,255,255); fill-opacity: 0; fill-rule: nonzero; opacity: 1;" vector-effect="non-scaling-stroke"  transform=" translate(0, 0)" d="M -199.72222 0 L 199.72222 0" stroke-linecap="round" />
</g>
<g transform="matrix(1 0 0 1 402.5 129.44)" id="wF_1gGp1OHfN_AI04uggw"  >
<path style="stroke: rgb(0,0,0); stroke-width: 1; stroke-dasharray: none; stroke-linecap: butt; stroke-dashoffset: 0; stroke-linejoin: miter; stroke-miterlimit: 4; fill: rgb(255,255,255); fill-opacity: 0; fill-rule: nonzero; opacity: 1;" vector-effect="non-scaling-stroke"  transform=" translate(0, 0)" d="M -196.94444 0 L 196.94445000000002 0" stroke-linecap="round" />
</g>
<g transform="matrix(1 0 0 1 395.42 155)" id="4Ektg6x_wpdz7y8ujzvP5"  >
<path style="stroke: rgb(0,0,0); stroke-width: 1; stroke-dasharray: none; stroke-linecap: butt; stroke-dashoffset: 0; stroke-linejoin: miter; stroke-miterlimit: 4; fill: rgb(255,255,255); fill-opacity: 0; fill-rule: nonzero; opacity: 1;" vector-effect="non-scaling-stroke"  transform=" translate(0, 0)" d="M -206.52778 0 L 206.52778 0" stroke-linecap="round" />
</g>
<g transform="matrix(1 0 0 1 178.96 500.07)" id="ZqES01szfMzzJscJ1t_k5"  >
<path style="stroke: rgb(0,0,0); stroke-width: 1; stroke-dasharray: none; stroke-linecap: butt; stroke-dashoffset: 0; stroke-linejoin: miter; stroke-miterlimit: 4; fill: rgb(255,255,255); fill-opacity: 0; fill-rule: nonzero; opacity: 1;" vector-effect="non-scaling-stroke"  transform=" translate(0, 0)" d="M 0 0" stroke-linecap="round" />
</g>
</svg>